<svg 
 xmlns="http://www.w3.org/2000/svg"
 xmlns:xlink="http://www.w3.org/1999/xlink"
 width="7.486in" height="2.111in">
<text kerning="auto" font-family="Myriad Pro" fill="rgb(0, 0, 0)" font-size="66.667px" x="160px" y="134.328px"><tspan font-size="66.667px" font-family="Poppins" font-weight="bold" fill="#000000">Community</tspan></text>
<text kerning="auto" font-family="Myriad Pro" fill="rgb(0, 0, 0)" font-size="66.667px" x="158px" y="79px"> <tspan dy="-0.531px"><tspan font-size="66.667px" font-family="Poppins" font-weight="bold" fill="#3B59DC">Tech</tspan><tspan font-size="66.667px" font-family="Poppins" font-weight="bold" fill="#000000">&#32;For&#32;The</tspan> </tspan><tspan x="158px" dy="1.2em"><tspan font-size="66.667px" font-family="Poppins" font-weight="bold" fill="#000000"> </tspan></tspan>
</text>
<path fill-rule="evenodd"  fill="rgb(0, 0, 0)"
 d="M100.999,0.0 C114.254,0.0 124.999,10.745 124.999,23.999 C124.999,37.254 114.254,47.999 100.999,47.999 C87.745,47.999 76.999,37.254 76.999,23.999 C76.999,10.745 87.745,0.0 100.999,0.0 Z"/>
<path fill-rule="evenodd"  fill="rgb(0, 0, 0)"
 d="M100.999,55.999 C114.254,55.999 124.999,66.745 124.999,79.999 C124.999,93.254 114.254,103.999 100.999,103.999 C87.745,103.999 76.999,93.254 76.999,79.999 C76.999,66.745 87.745,55.999 100.999,55.999 Z"/>
<path fill-rule="evenodd"  fill="rgb(0, 0, 0)"
 d="M86.999,75.999 L115.0,75.999 C120.522,75.999 125.0,80.477 125.0,85.999 L125.0,138.0 C125.0,143.522 120.522,148.0 115.0,148.0 L86.999,148.0 C81.477,148.0 76.999,143.522 76.999,138.0 L76.999,85.999 C76.999,80.477 81.477,75.999 86.999,75.999 Z"/>
<path fill-rule="evenodd"  fill="rgb(0, 0, 0)"
 d="M50.999,19.836 C61.102,19.836 69.292,28.25 69.292,38.128 C69.292,48.231 61.102,56.420 50.999,56.420 C40.897,56.420 32.707,48.231 32.707,38.128 C32.707,28.25 40.897,19.836 50.999,19.836 Z"/>
<path fill-rule="evenodd"  fill="rgb(0, 0, 0)"
 d="M50.999,62.518 C61.102,62.518 69.292,70.708 69.292,80.810 C69.292,90.913 61.102,99.103 50.999,99.103 C40.897,99.103 32.707,90.913 32.707,80.810 C32.707,70.708 40.897,62.518 50.999,62.518 Z"/>
<path fill-rule="evenodd"  fill="rgb(0, 0, 0)"
 d="M42.707,76.286 L59.292,76.286 C64.815,76.286 69.292,80.763 69.292,86.286 L69.292,121.163 C69.292,126.686 64.815,131.163 59.292,131.163 L42.707,131.163 C37.184,131.163 32.707,126.686 32.707,121.163 L32.707,86.286 C32.707,80.763 37.184,76.286 42.707,76.286 Z"/>
<path fill-rule="evenodd"  fill="rgb(0, 0, 0)"
 d="M12.999,38.477 C20.161,38.477 25.967,44.282 25.967,51.444 C25.967,58.606 20.161,64.411 12.999,64.411 C5.838,64.411 0.32,58.606 0.32,51.444 C0.32,44.282 5.838,38.477 12.999,38.477 Z"/>
<path fill-rule="evenodd"  fill="rgb(0, 0, 0)"
 d="M12.999,68.734 C20.161,68.734 25.967,74.539 25.967,81.701 C25.967,88.863 20.161,94.668 12.999,94.668 C5.838,94.668 0.32,88.863 0.32,81.701 C0.32,74.539 5.838,68.734 12.999,68.734 Z"/>
<path fill-rule="evenodd"  fill="rgb(0, 0, 0)"
 d="M10.32,75.620 L15.967,75.620 C21.490,75.620 25.967,80.98 25.967,85.620 L25.967,104.522 C25.967,110.45 21.490,114.522 15.967,114.522 L10.32,114.522 C4.509,114.522 0.32,110.45 0.32,104.522 L0.32,85.620 C0.32,80.98 4.509,75.620 10.32,75.620 Z"/>
</svg>